<svg xmlns="http://www.w3.org/2000/svg" viewBox="-315.0 -130.0 1390 1390"><defs><linearGradient id="g" x1="0" y1="1" x2="1" y2="0"><stop offset="0" stop-color="#6E7BFF"/><stop offset=".6" stop-color="#A06BFF"/><stop offset="1" stop-color="#FF5FCF"/></linearGradient>
<radialGradient id="bgg" cx=".3" cy=".2" r="1"><stop offset="0" stop-color="#241E66"/><stop offset="1" stop-color="#0C0A24"/></radialGradient>
<mask id="m" maskUnits="userSpaceOnUse" x="-315.0" y="-130.0" width="1390" height="1390"><g fill="#fff"><circle cx="330" cy="808" r="300"/><rect x="556" y="170" width="168" height="930" rx="18"/><rect x="534" y="15" width="212" height="190" rx="34"/></g><g fill="#000"><circle cx="330" cy="808" r="98"/><rect x="210" y="968" width="240" height="26" rx="13"/><rect x="556" y="460" width="168" height="14"/><rect x="556" y="364" width="168" height="14"/><rect x="556" y="268" width="168" height="14"/><circle cx="640.0" cy="51" r="13"/><circle cx="640.0" cy="99" r="13"/><circle cx="640.0" cy="147" r="13"/></g></mask>
<filter id="glow" x="-30%" y="-30%" width="160%" height="160%"><feGaussianBlur stdDeviation="45"/></filter></defs><rect x="-315.0" y="-130.0" width="1390" height="1390" fill="url(#bgg)"/><g filter="url(#glow)" opacity=".9"><rect x="-315.0" y="-130.0" width="1390" height="1390" fill="url(#g)" mask="url(#m)"/></g><rect x="-315.0" y="-130.0" width="1390" height="1390" fill="url(#g)" mask="url(#m)"/><g mask="url(#m)"><line x1="592" y1="179" x2="592" y2="1060" stroke="#fff" stroke-opacity=".55" stroke-width="7" stroke-linecap="round"/><line x1="642" y1="179" x2="642" y2="1060" stroke="#fff" stroke-opacity=".55" stroke-width="7" stroke-linecap="round"/><line x1="692" y1="179" x2="692" y2="1060" stroke="#fff" stroke-opacity=".55" stroke-width="7" stroke-linecap="round"/></g></svg>